<svg width="414" height="386" viewBox="0 0 414 386" fill="none" xmlns="http://www.w3.org/2000/svg">
<path d="M172.064 319.99C147.222 316.356 122.749 309.808 101.482 299.066C79.6624 288.045 60.5304 271.251 50.6594 250.055C40.7884 228.859 41.2074 203.11 54.7384 184.094C71.6774 160.289 104.1 151.382 134.1 145.012C164.1 138.641 196.559 131.945 216.521 110.287C239.02 85.8769 241.46 46.4279 270.805 29.4219C289.486 18.5959 315.049 20.9049 333.691 32.3199C363.294 50.4469 374.896 87.8359 377.636 118.884C381.14 158.586 375.921 200.884 361.049 238.075C338.715 293.924 278.576 327.582 214.958 324.001C200.653 323.195 186.251 322.065 172.064 319.99Z" fill="#FFFEED"/>
<path d="M139.28 121.742C123.898 123.026 108.718 118.09 100.922 104.821C94.4433 93.7941 96.3453 80.6041 100.554 69.3251C109.55 45.2181 132.556 26.2731 159.377 20.8851C173.73 18.0021 189.625 19.0351 202.076 26.5461C212.54 32.8581 219.842 43.5801 221.48 55.0341C227.021 93.8102 176.865 116.471 142.958 121.325C141.73 121.501 140.503 121.64 139.28 121.742Z" fill="#FFFEED"/>
<path d="M90.2366 16.3623H20.9727V123.147H90.2366V16.3623Z" stroke="#ADADFF" stroke-miterlimit="10"/>
<path d="M83.7438 22.4062H27.4668V78.6833H83.7438V22.4062Z" stroke="#ADADFF" stroke-miterlimit="10"/>
<path d="M83.7438 87.7432H27.4668V92.3702H83.7438V87.7432Z" stroke="#ADADFF" stroke-miterlimit="10"/>
<path d="M83.7438 97.8252H27.4668V102.452H83.7438V97.8252Z" stroke="#ADADFF" stroke-miterlimit="10"/>
<path d="M83.7438 107.907H27.4668V112.534H83.7438V107.907Z" stroke="#ADADFF" stroke-miterlimit="10"/>
<path d="M377.645 4.86719H312.532V105.253H377.645V4.86719Z" stroke="#ADADFF" stroke-miterlimit="10"/>
<path d="M371.543 10.5488H318.638V63.4528H371.543V10.5488Z" stroke="#ADADFF" stroke-miterlimit="10"/>
<path d="M371.543 71.9697H318.638V76.3197H371.543V71.9697Z" stroke="#ADADFF" stroke-miterlimit="10"/>
<path d="M371.543 81.4482H318.638V85.7982H371.543V81.4482Z" stroke="#ADADFF" stroke-miterlimit="10"/>
<path d="M371.543 90.9258H318.638V95.2758H371.543V90.9258Z" stroke="#ADADFF" stroke-miterlimit="10"/>
<path d="M154.905 26.194L155.859 19.996L151.667 18.475C151.521 17.209 151.217 15.982 150.771 14.818L153.788 11.532L150.08 6.475L146.039 8.364C145.063 7.589 143.985 6.929 142.821 6.409L142.631 1.954L136.434 1L134.913 5.192C133.647 5.338 132.42 5.642 131.256 6.088L127.97 3.071L122.913 6.779L124.802 10.82C124.027 11.796 123.367 12.874 122.847 14.038L118.392 14.228L117.438 20.426L121.63 21.947C121.776 23.213 122.081 24.44 122.526 25.604L119.509 28.89L123.217 33.947L127.258 32.058C128.234 32.833 129.312 33.493 130.476 34.012L130.666 38.467L136.863 39.421L138.384 35.229C139.65 35.083 140.877 34.779 142.041 34.333L145.327 37.35L150.384 33.642L148.495 29.601C149.27 28.625 149.93 27.547 150.449 26.383L154.905 26.194ZM135.501 27.662C131.387 27.029 128.565 23.18 129.198 19.065C129.831 14.951 133.68 12.129 137.794 12.762C141.909 13.395 144.73 17.244 144.097 21.359C143.464 25.473 139.615 28.295 135.501 27.662Z" stroke="#ADADFF" stroke-miterlimit="10"/>
<path d="M140.18 20.7557C139.88 22.7067 138.055 24.0447 136.104 23.7447C134.153 23.4447 132.815 21.6197 133.115 19.6687C133.415 17.7177 135.24 16.3797 137.191 16.6797C139.142 16.9797 140.48 18.8047 140.18 20.7557Z" stroke="#ADADFF" stroke-miterlimit="10"/>
<path d="M173.599 28.5037L170.01 25.9027L167.7 28.0477C166.857 27.7307 165.987 27.5257 165.111 27.4307L164.019 24.4727L159.642 25.1707L159.525 28.3217C158.722 28.6857 157.959 29.1497 157.257 29.7137L154.394 28.3947L151.793 31.9837L153.938 34.2937C153.621 35.1367 153.416 36.0067 153.321 36.8827L150.363 37.9747L151.062 42.3517L154.213 42.4687C154.576 43.2717 155.041 44.0347 155.605 44.7367L154.286 47.5997L157.875 50.2007L160.185 48.0557C161.028 48.3727 161.898 48.5777 162.774 48.6727L163.866 51.6307L168.243 50.9317L168.36 47.7807C169.163 47.4167 169.926 46.9527 170.628 46.3887L173.491 47.7077L176.092 44.1187L173.947 41.8087C174.264 40.9657 174.469 40.0957 174.564 39.2197L177.522 38.1277L176.823 33.7507L173.672 33.6337C173.309 32.8307 172.844 32.0677 172.28 31.3657L173.599 28.5037ZM168.256 41.1787C166.529 43.5617 163.198 44.0927 160.815 42.3657C158.432 40.6387 157.901 37.3077 159.628 34.9247C161.355 32.5417 164.686 32.0107 167.069 33.7377C169.451 35.4647 169.983 38.7957 168.256 41.1787Z" stroke="#ADADFF" stroke-miterlimit="10"/>
<path d="M165.424 36.0065C166.554 36.8255 166.806 38.4045 165.987 39.5345C165.168 40.6645 163.589 40.9165 162.459 40.0975C161.329 39.2785 161.077 37.6985 161.896 36.5695C162.715 35.4395 164.295 35.1875 165.424 36.0065Z" stroke="#ADADFF" stroke-miterlimit="10"/>
<path d="M394.295 147.944H362.227V169.259H394.295V147.944Z" stroke="#ADADFF" stroke-miterlimit="10"/>
<path d="M362.227 147.944L378.261 160.458L394.295 147.944" stroke="#ADADFF" stroke-miterlimit="10"/>
<path d="M362.227 169.26L374.278 157.351" stroke="#ADADFF" stroke-miterlimit="10"/>
<path d="M394.294 169.26L382.243 157.351" stroke="#ADADFF" stroke-miterlimit="10"/>
<path d="M376.891 322.064C375.265 322.988 373.384 323.189 371.479 322.004C369.861 320.998 368.738 319.361 367.863 317.669C366.988 315.977 366.312 314.181 365.328 312.549C364.087 310.49 362.383 308.743 361.098 306.711C358.649 302.841 358.315 298.731 358.701 294.298C359.056 290.22 361.833 286.181 360.942 282C359.87 276.969 353.728 274.284 352.589 269.268C351.582 264.835 354.894 260.264 353.886 255.832C352.852 251.29 347.711 248.674 346.394 244.206C344.846 238.959 349.134 233.345 347.733 228.058C346.557 223.622 341.776 220.964 340.247 216.637C337.777 209.652 344.707 201.743 341.865 194.9C348.321 196.9 351.907 203.977 354.002 210.403C356.097 216.829 357.023 223.729 360.387 229.592C363.321 234.704 368.16 239.284 368.148 245.178C368.139 249.45 365.47 253.578 366.317 257.766C367.196 262.108 371.517 264.892 373.295 268.95C375.216 273.333 373.892 278.392 374.265 283.163C374.624 287.756 376.565 292.056 378.45 296.259C380.335 300.463 382.224 304.798 382.463 309.399C382.636 312.728 381.877 316.363 379.96 319.133C379.136 320.323 378.082 321.387 376.891 322.064Z" fill="#42979E"/>
<path d="M376.755 302.878C374.744 298.818 371.376 295.642 369.216 291.672C368.128 289.672 367.366 287.477 367.381 285.178C367.395 282.989 368.006 280.862 368.572 278.765C369.111 276.77 369.658 274.726 369.636 272.643C369.617 270.738 369.047 268.943 368.039 267.333C366.028 264.124 362.804 261.811 361.169 258.346C359.371 254.535 359.689 250.155 359.898 246.066C360.104 242.045 360.297 237.846 358.684 234.06C357.141 230.436 354.296 227.61 352.334 224.235C351.229 222.334 350.531 220.309 350.382 218.106C350.215 215.647 350.559 213.195 350.644 210.741C350.762 207.36 350.18 203.392 347.469 201.046C346.868 200.526 346.189 200.135 345.446 199.857C345.09 199.724 344.937 200.293 345.289 200.425C348.728 201.712 349.963 205.789 350.067 209.135C350.206 213.656 348.989 218.193 350.818 222.532C352.304 226.058 355.044 228.829 356.998 232.078C358.036 233.804 358.765 235.645 359.116 237.632C359.478 239.678 359.482 241.77 359.41 243.84C359.272 247.817 358.759 251.896 359.68 255.819C360.112 257.658 360.899 259.364 362.01 260.89C363.094 262.378 364.381 263.697 365.586 265.084C366.793 266.474 367.954 267.978 368.56 269.738C369.255 271.756 369.103 273.89 368.668 275.946C367.813 279.986 366.104 283.931 367.151 288.114C368.229 292.423 371.301 295.784 373.834 299.294C376.258 302.652 378.451 306.748 377.434 311.024C377.204 311.99 376.8 312.884 376.228 313.695C376.009 314.006 376.52 314.3 376.737 313.992C379.059 310.697 378.449 306.299 376.755 302.878Z" fill="#7AC7C4"/>
<path d="M376.564 322.873C371.462 322.458 368.241 317.19 368.08 312.281C367.916 307.3 370.116 302.58 372.292 298.096C374.469 293.612 376.722 288.933 376.679 283.95C376.637 279.133 374.433 274.372 375.308 269.635C376.85 261.293 385.001 256.819 387.202 248.888C389.135 241.926 385.32 235.019 385.63 228.034C385.953 220.739 390.586 216.196 393.53 209.895C396.719 203.07 396.143 195.175 397.148 187.71C398.154 180.244 401.832 172.029 409.118 170.117C407.044 175.684 413.766 181.064 413.994 187C414.184 191.976 410.213 196.01 408.272 200.596C403.841 211.066 410.289 223.588 406.509 234.31C404.611 239.694 400.234 244.23 399.726 249.916C399.18 256.031 403.281 262.3 401.154 268.059C399.534 272.446 395.141 275.053 393.135 279.242C391.8 282.03 393.279 283.77 394.244 286.495C395.245 289.323 395.86 292.361 395.264 295.348C394.457 299.394 391.575 302.759 390.565 306.76C389.895 309.413 390.078 312.237 389.294 314.858C387.676 320.266 382.461 322.94 377.149 322.897C376.952 322.897 376.757 322.888 376.564 322.873Z" fill="#7AC7C4"/>
<path d="M406.04 175.172C401.622 178.074 402.955 184.099 403.638 188.426C403.9 190.085 404.085 191.799 403.812 193.47C403.605 194.733 403.119 195.916 402.496 197.028C401.352 199.07 399.816 200.86 398.652 202.889C397.5 204.897 396.911 207.036 397.313 209.349C397.773 211.996 399.291 214.529 399.081 217.275C398.887 219.798 397.002 221.577 395.243 223.182C393.508 224.765 391.818 226.353 390.967 228.6C388.981 233.845 391.441 239.458 392.541 244.597C393.159 247.484 393.47 250.594 392.366 253.408C391.464 255.706 389.672 257.462 387.839 259.046C386.093 260.556 384.228 261.968 382.75 263.757C381.318 265.491 380.41 267.522 380.154 269.762C379.597 274.643 381.718 279.415 382.803 284.077C383.376 286.54 383.748 289.123 383.305 291.639C382.828 294.349 381.416 296.742 379.904 298.997C377.136 303.123 373.658 307.647 374.545 312.956C374.743 314.144 375.216 315.252 375.93 316.221C376.153 316.523 376.664 316.229 376.439 315.924C373.012 311.278 376.274 305.347 379.044 301.297C380.519 299.142 382.066 297.001 383.058 294.568C383.982 292.302 384.238 289.9 383.989 287.474C383.484 282.551 381.291 277.981 380.76 273.067C380.506 270.717 380.722 268.305 381.826 266.181C382.895 264.124 384.633 262.54 386.375 261.057C388.112 259.578 389.933 258.154 391.34 256.339C392.901 254.326 393.656 251.934 393.689 249.394C393.762 243.733 390.835 238.535 390.842 232.88C390.846 230.143 391.671 227.643 393.547 225.622C395.048 224.005 396.89 222.711 398.223 220.938C399.652 219.037 399.937 216.862 399.398 214.574C398.781 211.954 397.392 209.389 397.843 206.625C398.594 202.022 402.954 199.026 404.171 194.581C405.641 189.212 401.978 183.671 404.158 178.384C404.613 177.281 405.336 176.338 406.338 175.681C406.653 175.473 406.358 174.963 406.04 175.172Z" fill="#42979E"/>
<path d="M62.9147 275.363C60.8617 274.627 58.5897 274.984 56.4677 275.489C54.3467 275.994 52.2037 276.645 50.0297 276.469C47.8557 276.293 45.5917 275.051 44.9827 272.957C44.1137 269.967 46.8017 267.262 48.9757 265.033C51.0957 262.86 52.9817 260.37 53.9337 257.486C54.8857 254.603 54.8037 251.275 53.1987 248.697C51.5937 246.12 48.3047 244.535 45.3897 245.387C43.1357 246.045 41.2767 248.002 38.9287 248.033C36.6827 248.063 34.7727 246.232 33.8897 244.166C33.0067 242.1 32.9007 239.802 32.5977 237.576C32.2187 234.781 31.4887 231.978 29.9617 229.606C28.4347 227.234 26.0237 225.328 23.2367 224.891C19.6057 224.322 15.7777 226.511 14.2387 229.849C12.6997 233.187 13.4387 237.388 15.8697 240.145C17.1577 241.605 18.8377 242.668 20.1867 244.072C21.5357 245.476 22.5697 247.445 22.0777 249.329C21.4837 251.604 18.9527 252.799 16.6237 253.123C14.2957 253.447 11.8577 253.221 9.65473 254.041C7.08173 254.998 5.11673 257.428 4.71873 260.145C4.32073 262.862 5.50673 265.753 7.69773 267.408C9.59373 268.84 12.0197 269.315 14.3417 269.818C16.6637 270.321 19.0867 270.952 20.8047 272.594C22.5227 274.235 23.1967 277.209 21.6227 278.988C19.7517 281.103 16.3857 280.291 13.5627 280.228C6.96273 280.082 0.812736 285.914 0.609736 292.513C0.405736 299.112 6.18373 305.312 12.7807 305.574C16.2217 305.71 19.5407 304.455 22.8897 303.657C26.2397 302.86 30.0117 302.583 32.8997 304.458C35.6107 306.218 36.9167 309.459 37.8627 312.55C38.8087 315.641 39.6277 318.925 41.8047 321.314C46.3217 326.27 54.7227 322.272 55.1587 316.008C55.3547 313.198 54.3487 310.466 53.6597 307.735C52.9707 305.004 52.6337 301.95 54.0357 299.507C55.1837 297.506 57.2827 296.285 59.2047 295.009C62.6607 292.714 65.9617 289.749 67.1917 285.786C68.4237 281.823 66.8207 276.764 62.9147 275.363Z" fill="#6C85BD"/>
<path d="M59.6656 280.309C55.8506 283.179 51.3896 285.138 46.6946 286.007C45.3856 286.249 44.0636 286.399 42.7346 286.467C42.3786 285.171 42.0146 283.877 41.6416 282.587C39.9536 276.75 38.1246 270.953 36.3066 265.156C35.7046 263.235 35.0926 261.316 34.4756 259.4C39.6716 257.475 45.2056 255.288 48.3636 250.453C48.5826 250.118 48.0456 249.806 47.8276 250.14C44.7636 254.832 39.3246 256.946 34.2846 258.811C33.1106 255.181 31.9026 251.563 30.6146 247.972C28.5996 242.355 26.3986 236.801 23.8806 231.39C23.5616 230.704 23.2366 230.02 22.9076 229.338C22.7336 228.979 22.1986 229.293 22.3716 229.651C24.9816 235.053 27.2586 240.609 29.3276 246.239C31.3696 251.794 33.2126 257.42 34.9966 263.063C29.5036 263.725 23.9056 263.384 18.5396 262.031C16.9916 261.641 15.4666 261.166 13.9696 260.615C13.5946 260.477 13.4326 261.076 13.8046 261.213C19.1076 263.163 24.7696 264.117 30.4186 264.01C32.0126 263.98 33.6046 263.861 35.1866 263.663C36.9516 269.251 38.7076 274.845 40.3726 280.464C41.5776 284.531 42.7126 288.622 43.7156 292.744C35.5266 293.363 27.2636 292.952 19.1816 291.491C16.8846 291.076 14.6046 290.576 12.3436 289.998C11.9566 289.899 11.7916 290.497 12.1786 290.596C20.2626 292.665 28.6106 293.697 36.9556 293.647C39.2626 293.633 41.5696 293.533 43.8696 293.355C44.2376 294.892 44.5886 296.433 44.9136 297.98C46.1516 303.883 47.0366 309.867 47.3296 315.895C47.3666 316.657 47.3936 317.419 47.4126 318.181C47.4226 318.58 48.0426 318.581 48.0326 318.181C47.8856 312.148 47.1336 306.145 45.9956 300.222C45.1456 295.798 44.0816 291.419 42.9006 287.073C47.6556 286.803 52.3286 285.45 56.4856 283.124C57.7006 282.444 58.8656 281.681 59.9776 280.845C60.2946 280.608 59.9856 280.069 59.6656 280.309Z" fill="#384259"/>
<path d="M352.168 331.645C352.096 334.794 352.045 336.548 352.045 336.548C352.045 336.548 346.394 339.133 338.814 336.415C338.814 336.415 338.588 334.641 338.178 331.461C335.142 307.789 322.167 206.176 319.162 178.729H352.66C354.896 213.663 352.732 308.947 352.168 331.645Z" fill="#EBBDA4"/>
<path d="M321.982 178.729C318.956 206.278 311.993 308.558 310.434 331.728C310.229 334.744 310.115 336.415 310.115 336.415C302.525 339.133 296.885 336.548 296.885 336.548C296.885 336.548 296.72 334.804 296.443 331.676C294.422 309.009 286.249 213.478 288.485 178.728L321.982 178.729Z" fill="#EBBDA4"/>
<path d="M321.983 178.729C321.628 181.963 321.231 186.225 320.803 191.271C320.78 191.583 320.754 191.897 320.727 192.215V192.224C320.538 194.464 320.345 196.85 320.147 199.364C320.147 199.364 320.147 199.364 320.147 199.367C317.248 236.321 313.391 300.331 311.763 325.731C311.757 325.83 311.751 325.929 311.746 326.025C311.682 327.007 311.624 327.927 311.568 328.787C311.559 328.886 311.553 328.985 311.548 329.081C311.481 330.115 311.417 331.056 311.362 331.892C307.735 332.148 302.625 332.376 298.343 332.294C298.244 332.291 298.148 332.291 298.055 332.288C296.945 332.262 295.896 332.215 294.949 332.142C294.853 331.073 294.748 329.843 294.634 328.463C294.625 328.367 294.616 328.268 294.608 328.169C294.544 327.394 294.477 326.573 294.407 325.71C294.401 325.614 294.392 325.515 294.384 325.416C291.922 294.603 286.425 210.716 288.485 178.729H321.983Z" fill="#C8C8FF"/>
<path d="M353.266 324.589C353.263 324.688 353.26 324.784 353.26 324.88C353.234 326.29 353.207 327.589 353.181 328.775C353.178 328.874 353.175 328.97 353.172 329.066C353.152 330.103 353.128 331.044 353.108 331.886C349.496 332.489 344.7 332.399 340.564 332.189C340.465 332.183 340.366 332.177 340.267 332.174C338.874 332.098 337.564 332.011 336.407 331.935C336.288 330.991 336.151 329.922 335.999 328.739C335.987 328.64 335.976 328.544 335.961 328.442C335.821 327.338 335.67 326.138 335.507 324.847C335.495 324.751 335.484 324.652 335.469 324.553C332.148 298.185 324.44 235.685 320.148 199.365C320.148 199.362 320.148 199.362 320.148 199.362C319.125 190.721 318.298 183.566 317.768 178.728H352.66C354.708 210.687 353.857 293.365 353.266 324.589Z" fill="#C8C8FF"/>
<path d="M324.673 183.496C324.655 183.287 324.327 183.291 324.345 183.502C324.425 184.41 324.129 185.335 323.505 186.006C322.925 186.629 322.108 186.989 321.262 187.026C321.207 186.895 320.96 186.924 320.946 187.104L319.699 202.648C319.581 204.113 319.464 205.578 319.346 207.043C319.329 207.253 319.657 207.246 319.673 207.037L320.92 191.493C321.031 190.113 321.141 188.734 321.252 187.354C322.187 187.32 323.101 186.921 323.74 186.234C324.421 185.502 324.761 184.487 324.673 183.496Z" fill="#232B40"/>
<path d="M336.382 348.783L336.423 349.073C336.463 349.504 336.511 349.917 336.586 350.365C336.67 350.735 336.737 351.139 336.812 351.553L381.108 351.987C381.108 351.987 381.183 351.531 381.19 350.811C381.176 350.442 381.154 350.012 381.08 349.51C381.063 349.422 381.055 349.317 381.021 349.22C380.563 346.721 378.779 343.262 372.74 342.096C372.451 342.023 372.144 341.985 371.811 341.938H371.785C371.311 341.863 370.838 341.814 370.329 341.766C370.162 341.756 369.996 341.736 369.829 341.726C357.722 340.659 352.397 336.541 352.397 336.541C352.397 336.541 345.359 337.877 338.788 336.408C338.788 336.408 338.003 337.682 337.296 339.906C337.187 340.282 337.069 340.685 336.959 341.114C336.932 341.193 336.914 341.281 336.886 341.377C336.84 341.544 336.804 341.736 336.766 341.929C336.757 341.981 336.739 342.052 336.738 342.104C336.738 342.148 336.711 342.165 336.711 342.2C336.527 343.111 336.385 344.111 336.322 345.19C336.257 346.314 336.254 347.517 336.382 348.783Z" fill="#6C85BD"/>
<path d="M356.79 336.944C356.64 336.804 356.443 336.699 356.233 336.707C356.01 336.715 355.846 336.797 355.671 336.933C355.548 337.028 355.425 337.123 355.301 337.217C354.712 337.661 354.114 338.093 353.506 338.51C353.333 338.629 353.197 338.772 353.138 338.98C353.084 339.169 353.105 339.422 353.212 339.591C353.425 339.93 353.927 340.136 354.292 339.886C355.14 339.305 355.968 338.696 356.78 338.065C356.929 337.949 357.016 337.687 357.017 337.508C357.018 337.312 356.934 337.079 356.79 336.944Z" fill="white"/>
<path d="M359.911 338.385C359.617 338.11 359.083 338.041 358.791 338.374C358.205 339.043 357.552 339.649 356.846 340.189C356.733 340.273 356.619 340.356 356.504 340.436C356.331 340.556 356.195 340.697 356.136 340.905C356.082 341.094 356.103 341.347 356.21 341.516C356.423 341.853 356.926 342.063 357.29 341.811C358.249 341.147 359.131 340.382 359.9 339.504C360.04 339.344 360.136 339.166 360.138 338.947C360.14 338.753 360.056 338.52 359.911 338.385Z" fill="white"/>
<path d="M362.784 339.437C362.634 339.297 362.437 339.192 362.227 339.199C362.032 339.206 361.792 339.265 361.665 339.425L359.847 341.716C359.71 341.888 359.612 342.044 359.61 342.274C359.608 342.468 359.692 342.701 359.836 342.836C359.985 342.976 360.182 343.081 360.393 343.074C360.588 343.067 360.828 343.008 360.955 342.847L362.773 340.556C362.91 340.384 363.008 340.228 363.01 339.998C363.012 339.805 362.928 339.572 362.784 339.437Z" fill="white"/>
<path d="M365.974 340.214C365.595 340.009 365.111 340.108 364.885 340.493C364.487 341.16 364.092 341.822 363.693 342.49C363.447 342.845 363.55 343.405 363.94 343.616C364.319 343.821 364.804 343.722 365.029 343.337C365.427 342.669 365.822 342.008 366.221 341.34C366.468 340.984 366.364 340.425 365.974 340.214Z" fill="white"/>
<path d="M336.417 349.079C336.464 349.497 336.511 349.924 336.592 350.36C336.665 350.744 336.729 351.146 336.819 351.556L381.105 351.99C381.105 351.99 381.186 351.539 381.194 350.814C381.18 350.439 381.159 350.004 381.079 349.517L336.417 349.079Z" fill="#C8C8FF"/>
<path d="M312.686 348.783L312.645 349.073C312.605 349.504 312.557 349.917 312.482 350.365C312.398 350.735 312.332 351.139 312.256 351.553L267.96 351.987C267.96 351.987 267.885 351.531 267.878 350.811C267.892 350.442 267.914 350.012 267.988 349.51C268.005 349.422 268.013 349.317 268.047 349.22C268.505 346.721 270.289 343.262 276.328 342.096C276.617 342.023 276.924 341.985 277.257 341.938H277.283C277.757 341.863 278.23 341.814 278.739 341.766C278.906 341.756 279.072 341.736 279.239 341.726C291.346 340.659 296.671 336.541 296.671 336.541C296.671 336.541 303.709 337.877 310.28 336.408C310.28 336.408 311.065 337.682 311.772 339.906C311.881 340.282 311.999 340.685 312.109 341.114C312.136 341.193 312.154 341.281 312.182 341.377C312.228 341.544 312.265 341.736 312.302 341.929C312.311 341.981 312.329 342.052 312.33 342.104C312.33 342.148 312.357 342.165 312.357 342.2C312.541 343.111 312.683 344.111 312.746 345.19C312.811 346.314 312.814 347.517 312.686 348.783Z" fill="#6C85BD"/>
<path d="M292.278 336.944C292.428 336.804 292.625 336.699 292.836 336.707C293.059 336.715 293.223 336.797 293.398 336.933C293.521 337.028 293.644 337.123 293.767 337.217C294.356 337.661 294.954 338.093 295.562 338.51C295.735 338.629 295.871 338.772 295.93 338.98C295.984 339.169 295.963 339.422 295.856 339.591C295.643 339.93 295.141 340.136 294.776 339.886C293.928 339.305 293.1 338.696 292.288 338.065C292.139 337.949 292.052 337.687 292.051 337.508C292.05 337.312 292.134 337.079 292.278 336.944Z" fill="white"/>
<path d="M289.156 338.385C289.45 338.11 289.984 338.041 290.276 338.374C290.862 339.043 291.515 339.649 292.221 340.189C292.334 340.273 292.448 340.356 292.563 340.436C292.736 340.556 292.872 340.697 292.931 340.905C292.985 341.094 292.964 341.347 292.857 341.516C292.644 341.853 292.141 342.063 291.777 341.811C290.818 341.147 289.936 340.382 289.167 339.504C289.027 339.344 288.931 339.166 288.929 338.947C288.928 338.753 289.012 338.52 289.156 338.385Z" fill="white"/>
<path d="M286.284 339.437C286.434 339.297 286.631 339.192 286.841 339.199C287.036 339.206 287.276 339.265 287.403 339.425L289.221 341.716C289.358 341.888 289.456 342.044 289.458 342.274C289.46 342.468 289.376 342.701 289.232 342.836C289.083 342.976 288.886 343.081 288.675 343.074C288.48 343.067 288.24 343.008 288.113 342.847L286.295 340.556C286.158 340.384 286.06 340.228 286.058 339.998C286.056 339.805 286.139 339.572 286.284 339.437Z" fill="white"/>
<path d="M283.094 340.214C283.473 340.009 283.958 340.108 284.183 340.493C284.581 341.16 284.976 341.822 285.375 342.49C285.621 342.845 285.518 343.405 285.128 343.616C284.749 343.821 284.264 343.722 284.039 343.337C283.64 342.669 283.246 342.008 282.847 341.34C282.6 340.984 282.704 340.425 283.094 340.214Z" fill="white"/>
<path d="M312.65 349.079C312.603 349.497 312.556 349.924 312.475 350.36C312.402 350.744 312.338 351.146 312.248 351.556L267.962 351.99C267.962 351.99 267.881 351.539 267.873 350.814C267.887 350.439 267.908 350.004 267.988 349.517L312.65 349.079Z" fill="#C8C8FF"/>
<path d="M298.343 332.294C298.244 332.291 298.148 332.291 298.055 332.288C297.93 331.12 297.813 329.955 297.697 328.789C297.685 328.69 297.677 328.591 297.668 328.495C297.583 327.653 297.502 326.814 297.423 325.972C297.411 325.873 297.4 325.777 297.394 325.678C296.645 317.935 295.993 310.18 295.442 302.419C293.982 281.919 293.205 261.369 293.108 240.819C293.012 220.161 293.609 199.503 294.888 178.886C294.9 178.7 295.191 178.697 295.179 178.886C294.462 190.443 293.955 202.014 293.673 213.591C293.166 234.135 293.341 254.7 294.197 275.232C294.902 292.082 296.064 308.912 297.684 325.701C297.693 325.797 297.701 325.893 297.713 325.992C297.792 326.834 297.876 327.676 297.961 328.521C297.97 328.617 297.978 328.716 297.99 328.815C298.104 329.975 298.223 331.135 298.343 332.294Z" fill="#232B40"/>
<path d="M340.564 332.19C340.465 332.184 340.366 332.178 340.267 332.175C340.13 331.179 339.99 330.185 339.85 329.189C339.835 329.09 339.824 328.994 339.809 328.895C339.637 327.671 339.468 326.445 339.296 325.221C339.282 325.125 339.27 325.026 339.255 324.93C338.334 318.346 337.417 311.762 336.499 305.178C333.851 286.224 331.206 267.268 328.558 248.315C325.948 229.618 323.34 210.921 320.727 192.223V192.214C320.689 191.961 320.654 191.704 320.619 191.451C320.602 191.331 320.715 191.259 320.803 191.27C320.85 191.276 320.89 191.308 320.902 191.372C322.391 202.052 323.882 212.732 325.374 223.412C328.022 242.368 330.667 261.322 333.313 280.275C335.393 295.168 337.473 310.06 339.553 324.949C339.565 325.048 339.579 325.144 339.594 325.24C339.763 326.466 339.935 327.693 340.107 328.919C340.122 329.015 340.133 329.114 340.148 329.21C340.284 330.206 340.424 331.196 340.564 332.19Z" fill="#232B40"/>
<path d="M311.569 328.787C311.56 328.886 311.554 328.985 311.549 329.081C311.083 329.104 310.617 329.122 310.151 329.139C307.133 329.241 304.112 329.209 301.1 329.04C300.063 328.982 299.026 328.906 297.992 328.816C297.893 328.807 297.794 328.799 297.698 328.79C296.675 328.697 295.653 328.589 294.636 328.464C294.627 328.368 294.618 328.269 294.61 328.17C295.499 328.281 296.39 328.377 297.281 328.461C297.409 328.473 297.54 328.484 297.669 328.496C297.768 328.505 297.864 328.513 297.963 328.522C300.719 328.767 303.484 328.892 306.251 328.907C308.023 328.915 309.797 328.874 311.569 328.787Z" fill="#232B40"/>
<path d="M311.764 325.731C311.758 325.83 311.752 325.929 311.747 326.025C311.348 326.051 310.949 326.074 310.55 326.095C307.401 326.264 304.243 326.29 301.094 326.174C299.966 326.133 298.839 326.072 297.715 325.993C297.619 325.987 297.52 325.981 297.424 325.973C296.419 325.9 295.414 325.813 294.409 325.711C294.403 325.615 294.394 325.516 294.386 325.417C295.24 325.504 296.093 325.58 296.947 325.647C297.096 325.659 297.247 325.67 297.396 325.679C297.492 325.688 297.591 325.693 297.687 325.702C300.586 325.903 303.493 325.985 306.398 325.944C308.186 325.917 309.978 325.847 311.764 325.731Z" fill="#232B40"/>
<path d="M353.181 328.774C353.178 328.873 353.175 328.969 353.172 329.065C353.003 329.083 352.831 329.1 352.662 329.118C349.568 329.424 346.454 329.52 343.346 329.406C342.28 329.368 341.211 329.304 340.147 329.211C340.048 329.205 339.949 329.197 339.85 329.188C338.562 329.074 337.278 328.926 335.999 328.739C335.987 328.64 335.976 328.544 335.961 328.442C337.08 328.608 338.201 328.742 339.329 328.85C339.489 328.865 339.649 328.879 339.81 328.894C339.909 328.903 340.008 328.911 340.107 328.92C342.921 329.156 345.75 329.22 348.576 329.109C350.114 329.048 351.652 328.937 353.181 328.774Z" fill="#232B40"/>
<path d="M353.266 324.589C353.263 324.688 353.26 324.784 353.26 324.88C352.797 324.938 352.334 324.991 351.867 325.037C348.686 325.36 345.484 325.474 342.291 325.375C341.391 325.349 340.491 325.305 339.593 325.241C339.494 325.235 339.395 325.229 339.296 325.221C338.029 325.131 336.764 325.005 335.506 324.848C335.494 324.752 335.483 324.653 335.468 324.554C336.374 324.668 337.28 324.764 338.192 324.845C338.547 324.877 338.9 324.903 339.255 324.93C339.354 324.939 339.453 324.945 339.552 324.95C342.241 325.134 344.939 325.169 347.63 325.052C349.514 324.973 351.395 324.819 353.266 324.589Z" fill="#232B40"/>
<path d="M370.944 85.3856C371.343 83.7086 365.294 75.9666 366.822 74.5376C368.219 73.2316 371.529 75.8476 372 77.9676C372.815 75.3586 372.947 64.3136 375.224 64.6506C376.909 64.8996 375.875 73.1886 375.875 73.1886C375.875 73.1886 378.123 63.7066 380.239 64.4136C382.355 65.1206 378.899 74.4736 378.899 74.4736C378.899 74.4736 382.299 66.7136 383.889 67.5596C385.452 68.3916 381.267 76.1486 381.267 76.1486C381.267 76.1486 385.471 70.5376 386.325 71.0726C387.179 71.6076 385.412 75.6236 383.184 78.2626C383.127 84.2426 379.248 87.9156 379.248 87.9156L370.944 85.3856Z" fill="#EBBDA4"/>
<path d="M335.752 85.9032C344.004 88.3052 352.459 115.755 352.459 115.755C352.459 115.755 367.572 83.2582 369.498 83.0322C371.424 82.8052 380.57 86.2322 381.37 87.6142C382.17 88.9962 367.828 120.295 364.474 126.337C360.088 134.238 347.993 135.736 342.258 127.384C335.693 117.822 335.752 85.9032 335.752 85.9032Z" fill="#4646E8"/>
<path d="M354.08 178.057C344.207 184.109 309.68 184.045 294.777 182.572C294.17 182.513 293.614 182.452 293.069 182.38C290.019 182.023 288.114 181.6 287.878 181.171L288.434 176.079L288.883 171.962L289.175 169.374L289.624 165.267L298.265 86.4278L301.893 85.3628L305.944 84.1768L311.005 82.6888L323.245 82.2988L328.258 83.7438L332.5 84.9598L335.751 85.9028L350.807 161.614L351.63 165.722L352.155 168.381L352.979 172.499L354.08 178.057Z" fill="#4646E8"/>
<path d="M329.337 121.177C329.814 130.86 325.633 138.934 319.998 139.212C314.363 139.49 309.409 131.865 308.932 122.182C308.455 112.499 312.636 104.424 318.271 104.147C323.905 103.87 328.86 111.494 329.337 121.177Z" fill="#7D2131"/>
<path d="M323.548 89.3143C321.864 90.8303 319.643 91.7163 317.381 91.8033C315.201 91.8873 313.052 91.1893 311.298 89.8993C310.32 89.1803 309.48 88.2763 308.836 87.2473C308.737 87.0883 308.485 87.2343 308.585 87.3943C309.76 89.2733 311.565 90.7213 313.641 91.4943C315.807 92.3003 318.219 92.2883 320.394 91.5153C321.632 91.0753 322.777 90.4003 323.754 89.5213C323.894 89.3943 323.687 89.1893 323.548 89.3143Z" fill="#7D2131"/>
<path d="M285.654 153.795C286.623 153.582 287.366 154.624 288.979 154.416C290.592 154.207 292.837 152.52 294.095 152.697C295.353 152.874 304.013 156.381 303.091 158.245C302.543 159.354 297.854 157.183 297.735 157.252C297.617 157.32 303.187 160.67 302.267 162.113C301.347 163.556 295.465 158.883 295.329 159.005C295.193 159.127 299.471 163.127 298.317 164.253C297.163 165.379 293.406 161.082 293.243 161.139C293.08 161.197 295.222 165.48 294.267 166.098C293.313 166.716 290.468 161.594 290.224 161.681C289.98 161.768 288.169 163.554 286.198 163.772C284.227 163.99 280.877 161.311 280.978 159.773C281.079 158.234 284.393 154.072 285.654 153.795Z" fill="#FABB98"/>
<path d="M298.265 86.4287C285.528 91.0487 269.605 108.439 263.187 115.151C256.501 122.144 257.99 129.815 262.227 135.198C264.959 138.67 278.543 160.667 280.187 160.824C282.643 161.058 289.51 155.396 289.098 152.684C288.845 151.019 275.957 126.151 275.957 126.151L295.609 110.671L298.265 86.4287Z" fill="#4646E8"/>
<path d="M340.278 107.733C339.766 105.079 339.255 102.424 338.743 99.7701C338.454 98.2701 338.165 96.7701 337.876 95.2711C337.841 95.0871 337.56 95.1651 337.595 95.3481C338.107 98.0021 338.618 100.657 339.13 103.311C339.642 105.965 340.153 108.62 340.665 111.274C340.954 112.774 341.243 114.274 341.532 115.773C341.567 115.957 341.848 115.879 341.813 115.696C341.301 113.042 340.789 110.387 340.278 107.733Z" fill="#7D2131"/>
<path d="M380.068 90.7415C378.899 89.9395 377.665 89.2335 376.377 88.6405C375.045 88.0275 373.659 87.5515 372.254 87.1395C371.435 86.8995 370.609 86.6795 369.785 86.4595C369.604 86.4115 369.55 86.6975 369.73 86.7455C371.155 87.1255 372.583 87.5055 373.976 87.9905C375.308 88.4545 376.602 89.0235 377.838 89.7045C378.539 90.0905 379.22 90.5115 379.879 90.9635C380.032 91.0685 380.223 90.8475 380.068 90.7415Z" fill="#7D2131"/>
<path d="M286.266 152.725C284.557 154.595 282.539 156.171 280.309 157.372C279.67 157.716 279.015 158.029 278.345 158.31C278.175 158.381 278.249 158.663 278.422 158.591C280.794 157.598 282.991 156.212 284.902 154.492C285.451 153.998 285.974 153.477 286.472 152.931C286.599 152.793 286.393 152.586 286.266 152.725Z" fill="#7D2131"/>
<path d="M302.055 106.034C301.445 106.182 300.834 106.33 300.224 106.479C300.723 106.062 301.226 105.65 301.735 105.245C301.882 105.128 301.674 104.924 301.529 105.039C300.875 105.558 300.233 106.091 299.597 106.63C299.589 106.632 299.58 106.634 299.572 106.636C299.512 106.65 299.483 106.691 299.473 106.736C298.043 107.954 296.654 109.22 295.317 110.54C295.183 110.672 295.389 110.878 295.523 110.746C296.877 109.41 298.283 108.129 299.732 106.897C300.532 106.703 301.332 106.509 302.132 106.314C302.315 106.271 302.238 105.99 302.055 106.034Z" fill="#7D2131"/>
<path d="M309.774 68.7972C304.437 66.4992 300.529 61.1792 299.93 55.3992C299.655 52.7422 300.189 49.7492 302.289 48.0992C301.669 46.8912 301.549 45.3212 301.847 43.9962C302.145 42.6712 302.776 41.4442 303.483 40.2852C306.521 35.3002 311.213 31.2212 316.789 29.4902C322.364 27.7592 328.8 28.5662 333.442 32.1052C338.084 35.6452 340.586 41.9902 339.068 47.6262C340.998 51.9952 339.763 57.4672 336.837 61.2422C333.911 65.0172 329.399 67.3362 324.732 68.3522C320.065 69.3692 314.161 70.6862 309.774 68.7972Z" fill="#421F09"/>
<path d="M306.757 63.2649C306.757 63.2649 311.143 72.6409 311.129 85.0699C313.657 90.7309 321.273 89.9669 323.197 84.9349C323.149 80.2089 324.002 78.0019 325.521 76.3919C325.647 76.2569 325.772 76.1389 325.904 76.0089C325.994 75.9169 326.083 75.8369 326.184 75.7519C326.362 75.5909 326.569 75.4429 326.765 75.2779C327.043 75.0659 327.332 74.8539 327.632 74.6369H327.638C328.822 73.7859 330.207 72.8889 331.752 71.5459C334.003 69.6049 335.697 66.9209 336.405 62.6989C336.419 62.6489 336.427 62.5979 336.436 62.5419C336.45 62.4799 336.459 62.4179 336.468 62.3569C336.485 62.2439 336.496 62.1429 336.507 62.0359C336.521 61.9859 336.523 61.9399 336.531 61.8949C337.076 57.7609 336.764 52.2269 335.242 44.5779C333.661 36.6469 314.445 33.4539 309.094 43.5169C306.892 47.6729 306.757 63.2649 306.757 63.2649Z" fill="#EBBDA4"/>
<path d="M335.898 42.9952C332.997 45.3112 329.139 46.1912 325.431 46.0222C321.723 45.8532 318.126 44.7142 314.674 43.3482C314.734 46.1782 313.123 48.8502 310.585 50.1022C310.417 52.0382 310.114 53.9362 309.584 55.8062C309.054 57.6762 308.137 59.4822 306.684 60.7732C304.677 55.3792 304.698 49.2342 306.804 43.8782C307.741 41.4942 309.122 39.2052 311.188 37.6912C313.433 36.0462 316.278 35.4582 319.05 35.2042C321.926 34.9402 324.83 34.9912 327.695 35.3552C329.75 35.6162 331.873 36.0772 333.486 37.3782C335.15 38.7232 336.086 40.8622 335.898 42.9952Z" fill="#421F09"/>
<path d="M327.413 60.4233C327.693 60.2873 327.989 60.2073 328.301 60.1943C328.579 60.1823 328.884 60.2253 329.111 60.3963C329.355 60.5803 329.474 60.8613 329.493 61.1613C329.511 61.4483 329.412 61.7293 329.301 61.9883C329.241 62.1273 329.105 62.2433 328.942 62.1893C328.808 62.1453 328.677 61.9803 328.741 61.8303C328.822 61.6403 328.911 61.4343 328.913 61.2253C328.914 61.1173 328.888 61.0083 328.825 60.9203C328.828 60.9263 328.832 60.9313 328.835 60.9373C328.778 60.8433 328.665 60.8083 328.563 60.7883C328.555 60.7863 328.547 60.7853 328.536 60.7833C328.514 60.7823 328.492 60.7793 328.47 60.7783C328.412 60.7753 328.354 60.7743 328.296 60.7773C328.266 60.7783 328.237 60.7813 328.207 60.7833C328.192 60.7843 328.19 60.7843 328.185 60.7843C328.18 60.7853 328.18 60.7853 328.166 60.7883C327.984 60.8173 327.829 60.8883 327.657 60.9463C327.527 60.9893 327.37 60.9483 327.304 60.8223C327.238 60.6883 327.267 60.4943 327.413 60.4233Z" fill="#C16B5B"/>
<path d="M333.976 53.2398C332.465 52.3858 330.614 52.2718 329.042 53.0488C328.657 53.2388 328.437 53.7408 328.645 54.1398C328.915 54.6588 329.417 54.6678 329.892 54.4638C330.315 54.2818 330.771 54.1738 331.231 54.1458C331.23 54.1208 331.19 54.1638 331.215 54.1628C331.804 54.1418 332.384 54.2718 332.916 54.5238C332.948 54.5388 332.979 54.5548 333.029 54.5788C333.401 54.7848 333.908 54.7808 334.166 54.3858C334.387 54.0468 334.375 53.4658 333.976 53.2398Z" fill="black"/>
<path d="M324.074 53.1214C322.469 52.4604 320.618 52.5764 319.154 53.5424C318.796 53.7784 318.639 54.3034 318.895 54.6744C319.143 55.0334 319.643 55.1874 320.027 54.9334C320.174 54.8364 320.327 54.7524 320.482 54.6694C320.497 54.6624 320.494 54.6634 320.504 54.6584C320.532 54.6464 320.56 54.6344 320.588 54.6224C320.649 54.5974 320.71 54.5744 320.772 54.5524C320.937 54.4934 321.107 54.4454 321.278 54.4064C321.321 54.3964 321.596 54.3194 321.384 54.3824C321.455 54.3614 321.54 54.3614 321.613 54.3544C321.777 54.3384 321.942 54.3314 322.106 54.3334C322.194 54.3344 322.281 54.3414 322.369 54.3444C322.379 54.3454 322.382 54.3444 322.388 54.3454C322.401 54.3474 322.418 54.3504 322.444 54.3534C322.607 54.3764 322.768 54.4084 322.927 54.4494C323.012 54.4714 323.096 54.4964 323.179 54.5234C323.212 54.5344 323.245 54.5464 323.278 54.5574C323.284 54.5594 323.281 54.5584 323.289 54.5614C323.291 54.5624 323.294 54.5624 323.296 54.5634C323.299 54.5644 323.301 54.5654 323.304 54.5664C323.301 54.5654 323.302 54.5654 323.299 54.5644C323.694 54.7224 324.196 54.6564 324.403 54.2324C324.581 53.8714 324.498 53.2964 324.074 53.1214Z" fill="black"/>
<path d="M324.387 64.348C325.417 65.163 326.737 65.555 328.044 65.459C328.406 65.433 328.426 65.995 328.065 66.022C326.604 66.129 325.15 65.668 324.004 64.761C323.719 64.535 324.104 64.124 324.387 64.348Z" fill="#C16B5B"/>
<path d="M320.765 58.631C320.727 59.363 321.291 59.989 322.023 60.027C322.756 60.065 323.381 59.503 323.419 58.77C323.458 58.037 322.895 57.412 322.162 57.374C321.429 57.335 320.803 57.898 320.765 58.631Z" fill="black"/>
<path d="M322.192 58.2796C322.181 58.4926 322.345 58.6756 322.558 58.6866C322.772 58.6976 322.954 58.5336 322.965 58.3206C322.976 58.1076 322.812 57.9246 322.599 57.9136C322.385 57.9026 322.203 58.0666 322.192 58.2796Z" fill="white"/>
<path d="M330.46 58.5459C330.422 59.2789 330.985 59.9039 331.717 59.9419C332.45 59.9799 333.075 59.4169 333.113 58.6849C333.151 57.9519 332.588 57.3269 331.856 57.2889C331.123 57.2509 330.498 57.8139 330.46 58.5459Z" fill="black"/>
<path d="M331.887 58.1957C331.876 58.4097 332.04 58.5917 332.253 58.6027C332.466 58.6137 332.649 58.4497 332.66 58.2367C332.671 58.0227 332.507 57.8407 332.294 57.8297C332.08 57.8177 331.898 57.9817 331.887 58.1957Z" fill="white"/>
<path d="M302.558 63.6684C304.225 65.6104 306.826 66.1124 308.368 64.7894C309.91 63.4664 309.808 60.8194 308.141 58.8774C306.474 56.9354 303.873 56.4334 302.331 57.7564C300.79 59.0794 300.891 61.7264 302.558 63.6684Z" fill="#EBBDA4"/>
<path d="M303.416 58.7033C304.111 58.3253 305.044 58.3323 305.909 58.7233C306.341 58.9173 306.655 59.1563 306.871 59.4533C307.157 59.8463 307.24 60.3443 307.089 60.7513C306.954 61.1163 306.667 61.3553 306.413 61.5663C306.23 61.7193 306.056 61.8633 305.959 62.0343C305.81 62.2973 305.853 62.6623 306.059 62.8843C306.264 63.1053 306.625 63.1733 306.899 63.0433C307.06 62.9673 307.251 63.0353 307.327 63.1953C307.403 63.3553 307.335 63.5473 307.175 63.6243C306.999 63.7083 306.808 63.7493 306.617 63.7513C306.235 63.7553 305.851 63.6053 305.588 63.3213C305.193 62.8963 305.114 62.2213 305.401 61.7163C305.555 61.4443 305.793 61.2463 306.003 61.0713C306.213 60.8963 306.412 60.7303 306.487 60.5263C306.563 60.3213 306.51 60.0483 306.351 59.8303C306.287 59.7423 306.2 59.6633 306.104 59.5873C305.785 59.5883 305.387 59.6913 305.187 59.9133C304.963 60.1653 304.859 60.5263 304.918 60.8583C304.949 61.0333 304.832 61.1993 304.657 61.2303C304.64 61.2333 304.622 61.2353 304.604 61.2353C304.45 61.2373 304.312 61.1273 304.285 60.9703C304.191 60.4423 304.349 59.8873 304.707 59.4863C304.841 59.3373 305.008 59.2353 305.184 59.1523C304.651 59.0153 304.126 59.0493 303.722 59.2693C303.222 59.5403 302.851 60.2313 303.115 60.7863C303.191 60.9463 303.123 61.1383 302.963 61.2153C302.803 61.2913 302.612 61.2233 302.535 61.0633C302.15 60.2523 302.553 59.1723 303.416 58.7033Z" fill="#C16B5B"/>
<path d="M247.955 64.8975H108.544C99.7558 64.8975 92.6328 72.0215 92.6328 80.8085V369.447C92.6328 378.235 99.7568 385.358 108.544 385.358H247.955C256.743 385.358 263.866 378.234 263.866 369.447V80.8085C263.866 72.0215 256.743 64.8975 247.955 64.8975Z" fill="#232B40"/>
<path d="M258.563 64.8975H119.152C110.364 64.8975 103.241 72.0215 103.241 80.8085V369.447C103.241 378.235 110.365 385.358 119.152 385.358H258.563C267.351 385.358 274.474 378.234 274.474 369.447V80.8085C274.474 72.0215 267.35 64.8975 258.563 64.8975Z" fill="#384259"/>
<path d="M252.721 72.4307H124.994C116.88 72.4307 110.302 79.0087 110.302 87.1227V340.325C110.302 348.439 116.88 355.017 124.994 355.017H252.721C260.835 355.017 267.413 348.439 267.413 340.325V87.1217C267.413 79.0077 260.835 72.4307 252.721 72.4307Z" fill="#6C85BD"/>
<path d="M188.857 382.01C194.716 382.01 199.465 376.844 199.465 370.472C199.465 364.099 194.716 358.934 188.857 358.934C182.998 358.934 178.249 364.099 178.249 370.472C178.249 376.844 182.998 382.01 188.857 382.01Z" fill="#6C85BD"/>
<path d="M143.307 184.756C143.307 188.741 140.077 191.971 136.092 191.971C132.107 191.971 128.877 188.741 128.877 184.756C128.877 180.771 132.107 177.541 136.092 177.541C140.077 177.54 143.307 180.771 143.307 184.756Z" fill="#859ACC"/>
<path d="M136.092 231.2C140.077 231.2 143.307 227.969 143.307 223.985C143.307 220 140.077 216.77 136.092 216.77C132.107 216.77 128.877 220 128.877 223.985C128.877 227.969 132.107 231.2 136.092 231.2Z" fill="#859ACC"/>
<path d="M136.092 270.427C140.077 270.427 143.307 267.197 143.307 263.212C143.307 259.227 140.077 255.997 136.092 255.997C132.107 255.997 128.877 259.227 128.877 263.212C128.877 267.197 132.107 270.427 136.092 270.427Z" fill="#859ACC"/>
<path d="M130.39 149.688C129.911 149.688 129.49 149.654 129.126 149.587C128.762 149.52 128.451 149.429 128.192 149.314V147.231C128.499 147.327 128.829 147.401 129.183 147.454C129.537 147.506 129.921 147.533 130.332 147.533C130.868 147.533 131.361 147.428 131.811 147.217C132.261 147.006 132.621 146.647 132.889 146.139C133.157 145.631 133.291 144.932 133.291 144.042V123.153H135.748V143.855C135.748 145.167 135.53 146.254 135.094 147.116C134.658 147.978 134.04 148.622 133.241 149.048C132.442 149.474 131.491 149.688 130.39 149.688Z" fill="white"/>
<path d="M159.54 133.626C159.54 135.245 159.334 136.717 158.922 138.044C158.51 139.371 157.899 140.51 157.09 141.463C156.28 142.416 155.277 143.151 154.08 143.669C152.883 144.186 151.494 144.444 149.913 144.444C148.285 144.444 146.865 144.186 145.654 143.669C144.442 143.151 143.436 142.414 142.637 141.457C141.837 140.499 141.239 139.354 140.841 138.023C140.444 136.692 140.245 135.217 140.245 133.598C140.245 131.453 140.599 129.571 141.308 127.952C142.017 126.333 143.092 125.074 144.534 124.174C145.975 123.274 147.783 122.823 149.957 122.823C152.035 122.823 153.786 123.268 155.208 124.159C156.63 125.05 157.708 126.302 158.44 127.916C159.173 129.529 159.54 131.432 159.54 133.626ZM142.817 133.626C142.817 135.408 143.07 136.95 143.578 138.252C144.085 139.555 144.864 140.561 145.912 141.269C146.961 141.978 148.294 142.332 149.913 142.332C151.541 142.332 152.875 141.978 153.914 141.269C154.953 140.561 155.722 139.555 156.22 138.252C156.718 136.95 156.967 135.408 156.967 133.626C156.967 130.916 156.4 128.796 155.264 127.269C154.129 125.742 152.36 124.978 149.956 124.978C148.328 124.978 146.987 125.328 145.933 126.026C144.879 126.725 144.097 127.719 143.584 129.007C143.073 130.295 142.817 131.835 142.817 133.626Z" fill="white"/>
<path d="M164.209 144.157V123.153H166.651V144.157H164.209Z" fill="white"/>
<path d="M188.849 144.157H186.033L174.583 126.515H174.468C174.496 126.984 174.53 127.518 174.569 128.117C174.607 128.716 174.638 129.353 174.662 130.028C174.686 130.703 174.698 131.39 174.698 132.09V144.158H172.428V123.154H175.229L186.636 140.738H186.737C186.717 140.403 186.694 139.926 186.665 139.309C186.636 138.691 186.609 138.026 186.586 137.312C186.562 136.599 186.55 135.935 186.55 135.322V123.154H188.849V144.157Z" fill="white"/>
<path d="M218.113 123.153V136.744C218.113 138.228 217.813 139.55 217.216 140.709C216.617 141.868 215.714 142.78 214.508 143.446C213.301 144.112 211.787 144.444 209.968 144.444C207.372 144.444 205.397 143.74 204.041 142.332C202.686 140.924 202.009 139.042 202.009 136.686V123.153H204.465V136.758C204.465 138.54 204.937 139.914 205.88 140.882C206.823 141.849 208.234 142.333 210.111 142.333C211.394 142.333 212.445 142.101 213.264 141.636C214.083 141.172 214.691 140.52 215.088 139.682C215.485 138.844 215.685 137.874 215.685 136.773V123.153H218.113Z" fill="white"/>
<path d="M235.526 138.569C235.526 139.814 235.217 140.875 234.599 141.751C233.982 142.627 233.118 143.295 232.006 143.755C230.895 144.215 229.587 144.444 228.084 144.444C227.288 144.444 226.537 144.406 225.828 144.329C225.119 144.252 224.468 144.142 223.874 143.998C223.28 143.854 222.759 143.677 222.309 143.467V141.125C223.027 141.422 223.904 141.697 224.938 141.951C225.972 142.205 227.054 142.331 228.185 142.331C229.238 142.331 230.129 142.19 230.857 141.907C231.585 141.625 232.138 141.218 232.516 140.686C232.894 140.155 233.083 139.515 233.083 138.768C233.083 138.05 232.925 137.449 232.609 136.965C232.293 136.482 231.768 136.041 231.036 135.643C230.304 135.245 229.305 134.822 228.041 134.372C227.149 134.056 226.364 133.709 225.685 133.33C225.004 132.952 224.435 132.523 223.975 132.044C223.515 131.565 223.168 131.009 222.934 130.377C222.699 129.745 222.581 129.022 222.581 128.208C222.581 127.087 222.866 126.127 223.436 125.327C224.005 124.528 224.795 123.914 225.806 123.488C226.817 123.062 227.978 122.849 229.289 122.849C230.41 122.849 231.446 122.954 232.399 123.165C233.352 123.376 234.226 123.659 235.021 124.013L234.26 126.111C233.503 125.795 232.7 125.531 231.853 125.321C231.005 125.11 230.131 125.005 229.232 125.005C228.332 125.005 227.572 125.137 226.955 125.401C226.337 125.664 225.865 126.035 225.54 126.514C225.214 126.993 225.052 127.563 225.052 128.223C225.052 128.961 225.207 129.574 225.519 130.062C225.83 130.551 226.328 130.984 227.013 131.362C227.698 131.74 228.605 132.135 229.735 132.547C230.971 132.998 232.02 133.474 232.881 133.977C233.743 134.48 234.4 135.093 234.85 135.816C235.3 136.539 235.526 137.458 235.526 138.569Z" fill="white"/>
<path d="M130.549 195.717H251.308" stroke="#859ACC" stroke-miterlimit="10" stroke-linecap="round"/>
<path d="M130.549 234.945H251.308" stroke="#859ACC" stroke-miterlimit="10" stroke-linecap="round"/>
<path d="M130.549 274.173H251.308" stroke="#859ACC" stroke-miterlimit="10" stroke-linecap="round"/>
<path d="M208.017 309.965H169.695C165.135 309.965 161.439 306.269 161.439 301.709C161.439 297.149 165.135 293.453 169.695 293.453H208.017C212.577 293.453 216.273 297.15 216.273 301.709C216.274 306.269 212.577 309.965 208.017 309.965Z" fill="#859ACC"/>
<path d="M61.3189 382.199L61.3639 382.488C61.4099 382.918 61.4639 383.33 61.5449 383.778C61.6349 384.146 61.7059 384.55 61.7869 384.962L106.085 384.782C106.085 384.782 106.153 384.325 106.15 383.605C106.131 383.236 106.103 382.806 106.022 382.306C106.004 382.218 105.995 382.113 105.959 382.016C105.466 379.524 103.635 376.09 97.5799 375.008C97.2899 374.939 96.9819 374.905 96.6489 374.863H96.6229C96.1479 374.795 95.6739 374.753 95.1649 374.711C94.9979 374.703 94.8309 374.686 94.6639 374.678C82.5429 373.779 77.1609 369.735 77.1609 369.735C77.1609 369.735 70.1419 371.169 63.5509 369.79C63.5509 369.79 62.7839 371.075 62.1079 373.308C62.0039 373.686 61.8919 374.09 61.7879 374.521C61.7619 374.6 61.7449 374.688 61.7189 374.785C61.6759 374.952 61.6409 375.145 61.6069 375.339C61.5989 375.392 61.5809 375.462 61.5809 375.515C61.5809 375.559 61.5549 375.576 61.5549 375.612C61.3829 376.526 61.2549 377.527 61.2069 378.607C61.1599 379.732 61.1729 380.935 61.3189 382.199Z" fill="#4646E8"/>
<path d="M81.5598 370.077C81.4078 369.939 81.2098 369.837 80.9988 369.847C80.7758 369.858 80.6128 369.943 80.4398 370.081C80.3188 370.178 80.1968 370.274 80.0748 370.37C79.4918 370.822 78.9008 371.262 78.2978 371.688C78.1268 371.809 77.9918 371.955 77.9358 372.163C77.8848 372.353 77.9088 372.605 78.0178 372.773C78.2358 373.108 78.7398 373.308 79.1018 373.053C79.9418 372.461 80.7618 371.84 81.5638 371.198C81.7118 371.08 81.7938 370.817 81.7938 370.637C81.7928 370.442 81.7058 370.211 81.5598 370.077Z" fill="white"/>
<path d="M84.7022 371.475C84.4052 371.204 83.8692 371.143 83.5822 371.479C83.0052 372.156 82.3612 372.771 81.6622 373.321C81.5502 373.406 81.4382 373.491 81.3232 373.573C81.1522 373.695 81.0182 373.838 80.9612 374.047C80.9102 374.237 80.9342 374.489 81.0432 374.657C81.2602 374.991 81.7672 375.194 82.1272 374.937C83.0762 374.26 83.9482 373.482 84.7052 372.594C84.8432 372.432 84.9362 372.252 84.9352 372.033C84.9352 371.84 84.8482 371.608 84.7022 371.475Z" fill="white"/>
<path d="M87.5891 372.487C87.4371 372.349 87.2391 372.247 87.0281 372.257C86.8331 372.267 86.5941 372.329 86.4691 372.491L84.6831 374.807C84.5491 374.981 84.4531 375.138 84.4531 375.368C84.4541 375.562 84.5411 375.794 84.6871 375.927C84.8381 376.065 85.0371 376.167 85.2481 376.157C85.4421 376.147 85.6821 376.085 85.8071 375.923L87.5931 373.607C87.7271 373.433 87.8231 373.276 87.8221 373.046C87.8221 372.852 87.7351 372.621 87.5891 372.487Z" fill="white"/>
<path d="M90.7888 373.22C90.4068 373.02 89.9238 373.126 89.7038 373.514C89.3148 374.187 88.9288 374.854 88.5398 375.527C88.2988 375.885 88.4098 376.443 88.8028 376.649C89.1848 376.849 89.6678 376.743 89.8878 376.355C90.2768 375.682 90.6628 375.015 91.0518 374.342C91.2928 373.983 91.1818 373.425 90.7888 373.22Z" fill="white"/>
<path d="M61.3584 382.494C61.4114 382.912 61.4644 383.338 61.5514 383.772C61.6294 384.155 61.6994 384.556 61.7944 384.965L106.082 384.785C106.082 384.785 106.157 384.333 106.154 383.608C106.135 383.233 106.108 382.798 106.021 382.313L61.3584 382.494Z" fill="#384259"/>
<path d="M18.8858 350.375L18.7169 350.615C18.4499 350.956 18.2019 351.289 17.9489 351.667C17.7569 351.994 17.5269 352.333 17.2979 352.685L49.2299 383.389C49.2299 383.389 49.5968 383.109 50.0958 382.59C50.3388 382.312 50.6179 381.983 50.9079 381.568C50.9559 381.492 51.0229 381.411 51.0639 381.318C52.4449 379.186 53.5199 375.444 49.9258 370.453C49.7659 370.202 49.5688 369.964 49.3578 369.701L49.3389 369.682C49.0459 369.303 48.7348 368.943 48.3979 368.559C48.2838 368.437 48.1759 368.308 48.0619 368.186C39.9849 359.104 38.9349 352.454 38.9349 352.454C38.9349 352.454 32.8978 348.598 29.1238 343.021C29.1238 343.021 27.6788 343.41 25.6388 344.542C25.3008 344.741 24.9388 344.953 24.5648 345.19C24.4908 345.229 24.4178 345.28 24.3318 345.331C24.1848 345.421 24.0259 345.536 23.8659 345.65C23.8229 345.682 23.7619 345.72 23.7249 345.758C23.6949 345.79 23.6628 345.784 23.6388 345.809C22.8798 346.345 22.0908 346.977 21.3038 347.719C20.4888 348.493 19.6608 349.366 18.8858 350.375Z" fill="#4646E8"/>
<path d="M41.8569 355.761C41.8439 355.556 41.7729 355.345 41.6139 355.206C41.4459 355.059 41.2699 355.006 41.0499 354.985C40.8949 354.97 40.7409 354.954 40.5859 354.938C39.8529 354.857 39.1209 354.761 38.3929 354.647C38.1859 354.615 37.9879 354.626 37.8029 354.736C37.6339 354.837 37.4759 355.035 37.4379 355.231C37.3609 355.624 37.5839 356.118 38.0219 356.186C39.0369 356.345 40.0579 356.47 41.0809 356.568C41.2689 356.586 41.5109 356.455 41.6359 356.325C41.7699 356.186 41.8689 355.958 41.8569 355.761Z" fill="white"/>
<path d="M43.1399 358.951C43.1149 358.55 42.7729 358.133 42.3329 358.175C41.4479 358.26 40.5569 358.253 39.6719 358.161C39.5319 358.144 39.3929 358.127 39.2529 358.106C39.0449 358.074 38.8489 358.084 38.6629 358.195C38.4939 358.295 38.3359 358.494 38.2969 358.69C38.2209 359.081 38.4429 359.579 38.8809 359.645C40.0339 359.82 41.2009 359.868 42.3629 359.757C42.5749 359.737 42.7659 359.672 42.9179 359.514C43.0529 359.376 43.1519 359.148 43.1399 358.951Z" fill="white"/>
<path d="M44.5083 361.687C44.4953 361.483 44.4243 361.271 44.2653 361.132C44.1193 361.003 43.9033 360.881 43.7013 360.911L40.8063 361.331C40.5893 361.363 40.4103 361.408 40.2513 361.574C40.1173 361.714 40.0183 361.941 40.0303 362.138C40.0433 362.342 40.1143 362.554 40.2733 362.693C40.4193 362.821 40.6353 362.943 40.8373 362.914L43.7323 362.494C43.9493 362.463 44.1283 362.417 44.2873 362.251C44.4223 362.111 44.5203 361.884 44.5083 361.687Z" fill="white"/>
<path d="M46.296 364.441C46.161 364.032 45.74 363.772 45.313 363.897C44.565 364.109 43.824 364.32 43.076 364.532C42.653 364.621 42.345 365.1 42.484 365.521C42.619 365.93 43.04 366.19 43.468 366.066C44.216 365.854 44.957 365.643 45.705 365.431C46.126 365.34 46.435 364.862 46.296 364.441Z" fill="white"/>
<path d="M18.7088 350.614C18.4558 350.951 18.1978 351.293 17.9578 351.666C17.7468 351.996 17.5188 352.332 17.3018 352.692L49.2258 383.389C49.2258 383.389 49.5948 383.116 50.0968 382.594C50.3438 382.312 50.6278 381.981 50.9028 381.571L18.7088 350.614Z" fill="#384259"/>
<path d="M56.3283 285.903C53.8993 289.047 59.7603 339.139 62.3713 360.384C63.0823 366.15 63.5523 369.792 63.5523 369.792C63.5523 369.792 68.3863 371.652 77.1613 369.735C77.1613 369.735 77.2863 365.897 77.4743 359.865C78.1393 339.178 79.6223 292.675 79.7613 286.629C79.9423 278.822 70.4953 204.871 70.4953 204.871H41.7063C34.7193 229.226 56.3283 285.903 56.3283 285.903Z" fill="#FFC9AB"/>
<path d="M29.125 343.019C32.173 349.019 38.935 352.452 38.935 352.452C38.935 352.452 43.082 348.294 49.222 341.977C65.794 324.918 96.873 292.11 99.922 282.879C101.764 277.291 100.647 219.972 95.743 204.869H62.063L73.039 279.001L36.41 332.398L29.125 343.019Z" fill="#FFC9AB"/>
<path d="M100.757 282.542C97.9523 291.037 72.5483 321.186 55.6053 339.231C55.5383 339.301 55.4713 339.371 55.4073 339.441C55.0693 339.799 54.7373 340.152 54.4053 340.499C54.3383 340.572 54.2713 340.642 54.2043 340.712C53.2453 341.726 52.3163 342.693 51.4253 343.611C46.8053 340.925 39.2043 334.933 35.3213 331.262L38.1443 327.349L38.3163 327.11L39.7493 325.123L39.9243 324.884L73.0393 279.004L62.0623 204.871H95.7423C100.647 219.974 102.601 276.954 100.757 282.542Z" fill="#C8C8FF"/>
<path d="M79.8894 354.758C79.8864 354.857 79.8864 354.953 79.8834 355.049C79.8744 355.544 79.8635 356.031 79.8545 356.506C79.8515 356.602 79.8484 356.701 79.8484 356.797C79.8224 357.854 79.7934 358.863 79.7635 359.815C74.7615 360.503 65.0604 360.159 60.0264 359.815C59.8834 358.644 59.7324 357.383 59.5774 356.051C59.5684 355.952 59.5574 355.853 59.5454 355.754C59.4844 355.224 59.4234 354.679 59.3584 354.125C59.3494 354.026 59.3384 353.927 59.3264 353.828C56.7134 330.444 53.1965 288.484 55.4165 285.609C55.4165 285.609 33.3194 235.56 41.7034 204.869H70.4924C70.4924 204.869 79.9405 278.821 79.7595 286.629C79.6325 292.222 80.3114 332.393 79.8894 354.758Z" fill="#C8C8FF"/>
<path d="M72.7699 218.142C73.8179 224.162 74.7549 230.201 75.5779 236.256C76.3949 242.266 77.1009 248.291 77.6949 254.327C78.2959 260.438 78.7829 266.561 79.1549 272.69C79.5249 278.789 79.7809 284.895 79.9229 291.004C80.0649 297.113 80.0929 303.224 80.0059 309.334C79.9949 310.098 79.9819 310.861 79.9679 311.625C79.9639 311.854 79.6079 311.851 79.6119 311.621C79.8399 299.402 79.6149 287.176 78.9319 274.974C78.2499 262.788 77.1139 250.628 75.5249 238.527C74.6339 231.742 73.5989 224.975 72.4259 218.233C72.3869 218.009 72.7299 217.917 72.7699 218.142Z" fill="#42979E"/>
<path d="M55.4708 304.626C55.7838 308.816 56.0968 313.005 56.4098 317.195C56.7228 321.385 57.0358 325.574 57.3488 329.764C57.5248 332.124 57.7018 334.485 57.8778 336.845C57.8948 337.073 57.5388 337.072 57.5218 336.845C57.2088 332.655 56.8958 328.466 56.5828 324.276L55.6438 311.707C55.4678 309.347 55.2908 306.986 55.1148 304.626C55.0978 304.398 55.4538 304.399 55.4708 304.626Z" fill="#42979E"/>
<path d="M79.8549 356.506C79.8519 356.602 79.8489 356.701 79.8489 356.797C78.9199 356.861 77.9929 356.914 77.0639 356.951C73.6409 357.088 70.2119 357.041 66.7919 356.811C64.3799 356.648 61.9729 356.394 59.5789 356.051C59.5699 355.952 59.5589 355.853 59.5469 355.754C60.5079 355.894 61.4729 356.019 62.4369 356.127C65.8049 356.509 69.1959 356.71 72.5839 356.733C75.0099 356.75 77.4369 356.675 79.8549 356.506Z" fill="#42979E"/>
<path d="M79.8901 354.758C79.8871 354.857 79.8871 354.953 79.8841 355.049C78.7601 355.101 77.6351 355.136 76.5071 355.157C73.1281 355.209 69.7481 355.113 66.3811 354.866C64.0331 354.694 61.6911 354.447 59.3601 354.126C59.3511 354.027 59.3401 353.928 59.3281 353.829C60.2461 353.957 61.1631 354.071 62.0841 354.173C65.4281 354.549 68.7901 354.776 72.1551 354.852C74.7311 354.909 77.3121 354.877 79.8901 354.758Z" fill="#42979E"/>
<path d="M54.4046 340.497C54.3376 340.57 54.2706 340.64 54.2036 340.71C53.3676 340.084 52.5346 339.451 51.7066 338.811C49.0816 336.783 46.5096 334.692 43.9866 332.536C42.0056 330.846 40.0566 329.116 38.1426 327.347L38.3146 327.108C39.1566 327.886 40.0046 328.655 40.8576 329.418C43.3246 331.62 45.8446 333.759 48.4146 335.839C50.3816 337.43 52.3796 338.983 54.4046 340.497Z" fill="#42979E"/>
<path d="M55.605 339.23C55.538 339.3 55.471 339.37 55.407 339.44C54.559 338.793 53.723 338.132 52.896 337.459C50.367 335.411 47.917 333.261 45.558 331.018C43.554 329.119 41.616 327.149 39.749 325.122L39.924 324.883C40.836 325.874 41.762 326.849 42.706 327.808C44.976 330.115 47.329 332.332 49.771 334.456C51.663 336.104 53.612 337.698 55.605 339.23Z" fill="#42979E"/>
<path d="M112.948 115.449L123.66 122.029C124.661 122.644 125.971 122.331 126.586 121.33C127.201 120.329 126.888 119.019 125.887 118.404L115.175 111.824L112.948 115.449Z" fill="#C8C8FF"/>
<path d="M112.343 118.954L138.48 96.7061L113.925 81.6221L105.894 114.993L112.343 118.954Z" fill="#C4EDDE"/>
<path d="M104.153 113.924C103.608 114.811 103.885 115.973 104.773 116.518L111.159 120.441C112.046 120.986 113.208 120.709 113.753 119.821C114.298 118.934 114.021 117.772 113.133 117.227L106.747 113.304C105.859 112.759 104.698 113.036 104.153 113.924Z" fill="#C8C8FF"/>
<path d="M112.016 80.4488C111.471 81.3358 111.748 82.4978 112.636 83.0428L137.466 98.2958C138.353 98.8408 139.515 98.5638 140.06 97.6758C140.605 96.7888 140.328 95.6268 139.44 95.0818L114.611 79.8288C113.722 79.2838 112.561 79.5618 112.016 80.4488Z" fill="#C8C8FF"/>
<path d="M92.7091 108.895C91.4311 104.514 90.2271 99.9991 90.5921 95.4511C90.8301 92.4891 91.7301 89.5101 91.1481 86.5961C90.2951 82.3251 86.3471 79.2141 82.1491 78.0491C75.9881 76.3391 68.5471 77.6661 63.1681 81.0581C59.6871 83.2531 56.7941 86.4201 55.0981 90.1851C52.1611 96.7051 52.6091 104.462 49.1271 110.708C47.0431 114.446 43.5761 117.617 42.9971 121.858C42.4821 125.628 44.5081 129.417 47.4391 131.844C50.3691 134.271 54.0871 135.534 57.7921 136.403C65.6861 138.255 73.9461 138.535 81.9471 137.221C84.7941 136.753 87.6961 136.047 90.0241 134.343C93.7061 131.648 95.3401 126.839 95.3511 122.276C95.3621 117.712 93.9871 113.275 92.7091 108.895Z" fill="#421F09"/>
<path d="M119.438 126.773C119.668 125.143 113.263 120.997 118.161 118.182C118.161 118.182 119.478 113.399 121.003 112.489C122.528 111.579 128.805 112.812 130.808 116.947C131.968 119.343 128.367 128.903 128.367 128.903L119.438 126.773Z" fill="#FFC9AB"/>
<path d="M118.521 117.841C119.233 117.43 119.973 117.069 120.738 116.767C121.444 116.488 122.216 116.203 122.987 116.345C123.641 116.465 124.192 116.875 124.378 117.529C124.566 118.191 124.332 118.884 123.88 119.381C123.474 119.829 122.935 120.093 122.362 120.247C122.869 120.553 123.279 121.013 123.565 121.535C124.044 122.411 124.158 123.429 124.194 124.41C124.202 124.639 123.847 124.612 123.839 124.385C123.784 122.863 123.379 120.958 121.798 120.365C121.752 120.372 121.708 120.38 121.662 120.386C121.514 120.405 121.433 120.263 121.459 120.154C121.449 120.042 121.548 119.912 121.692 119.952C121.741 119.966 121.787 119.985 121.835 120.001C122.402 119.905 122.96 119.723 123.406 119.347C123.867 118.958 124.174 118.375 124.067 117.761C123.953 117.106 123.391 116.727 122.756 116.671C122.076 116.611 121.403 116.881 120.785 117.131C120.06 117.424 119.357 117.769 118.68 118.16C118.48 118.275 118.324 117.955 118.521 117.841Z" fill="#C16B5B"/>
<path d="M123.834 118.994C123.854 118.899 123.979 118.857 124.061 118.886C124.162 118.92 124.189 119.02 124.169 119.113C124.06 119.626 124.316 120.191 124.759 120.463C125.195 120.731 125.781 120.678 126.186 120.378C126.178 119.875 126.263 119.36 126.341 118.888C126.511 117.867 126.793 116.867 127.178 115.906C127.263 115.694 127.599 115.811 127.513 116.025C127.217 116.763 126.979 117.525 126.812 118.303C126.665 118.987 126.507 119.746 126.545 120.46C126.546 120.466 126.547 120.472 126.546 120.478C126.55 120.553 126.555 120.628 126.564 120.702C126.64 121.327 127.054 122.088 127.787 122.034C128.54 121.979 128.949 121.224 129.144 120.585C129.412 119.703 129.586 118.785 129.799 117.889C129.852 117.667 130.187 117.787 130.134 118.008C129.919 118.916 129.748 119.85 129.468 120.741C129.247 121.448 128.812 122.15 128.05 122.348C127.339 122.533 126.679 122.068 126.394 121.433C126.3 121.225 126.245 121.005 126.214 120.78C125.705 121.058 125.06 121.065 124.557 120.756C123.968 120.394 123.693 119.661 123.834 118.994Z" fill="#C16B5B"/>
<path d="M124.608 114.984C124.7 114.776 125.036 114.892 124.943 115.103C124.635 115.802 124.399 116.533 124.247 117.281C124.228 117.375 124.162 117.453 124.057 117.446C123.971 117.44 123.873 117.351 123.892 117.256C124.051 116.474 124.287 115.714 124.608 114.984Z" fill="#C16B5B"/>
<path d="M121.84 113.95C121.925 113.738 122.261 113.855 122.175 114.069C121.838 114.908 121.591 115.78 121.444 116.672C121.407 116.896 121.052 116.873 121.089 116.647C121.241 115.723 121.49 114.819 121.84 113.95Z" fill="#C16B5B"/>
<path d="M129.548 119.264C129.847 119.137 130.146 119.01 130.445 118.883C130.531 118.847 130.643 118.873 130.683 118.964C130.72 119.048 130.694 119.163 130.602 119.202C130.303 119.329 130.004 119.456 129.705 119.583C129.62 119.619 129.507 119.593 129.467 119.502C129.43 119.418 129.457 119.303 129.548 119.264Z" fill="#C16B5B"/>
<path d="M84.6699 128.095C90.4369 130.779 108.688 158.262 108.688 158.262L119.41 126.716L128.458 128.655C128.525 128.266 123.517 156.191 122 165.562C120.697 173.611 109.546 181.329 98.7029 170.118C87.8599 158.906 84.6689 154.186 84.6689 154.186L84.6699 128.095Z" fill="#FFC9AB"/>
<path d="M84.6699 128.095C91.7229 130.098 108.462 155.353 108.462 155.353C108.462 155.353 103.379 167.75 98.0239 171.097L85.3789 157.56L84.6699 128.095Z" fill="#4646E8"/>
<path d="M41.7061 204.871C75.3631 212.401 95.743 204.871 95.743 204.871C94.7191 201.724 89.702 177.989 87.743 168.658C87.257 166.335 86.9621 164.904 86.9621 164.904C93.3881 162.718 94.9561 152.865 90.1091 145.092C89.2641 143.74 88.2291 142.452 86.9881 141.274L84.6701 128.094L76.0471 125.01L64.7471 124.931L53.3151 128.617L52.9561 145.62L52.4761 168.616L52.1491 184.214L41.7061 204.871Z" fill="white"/>
<path d="M101.442 218.013C97.3951 220.373 91.3041 219.915 91.3041 219.915C91.3041 219.915 85.9491 181.533 85.7511 177.667C85.5531 173.798 77.2441 125.438 77.2441 125.438L78.4651 125.875L78.6221 125.93L84.6701 128.094L87.1371 141.038C95.7431 149.227 94.5801 162.951 87.1431 164.772L101.042 216.526L101.118 216.811L101.442 218.013Z" fill="#4646E8"/>
<path d="M91.0429 146.512C89.9649 144.582 88.5989 142.825 87.1079 141.197C87.0849 141.172 87.0589 141.161 87.0319 141.156C87.0679 141.124 87.0919 141.077 87.0819 141.018C86.5899 138.222 86.0989 135.426 85.6069 132.63C85.4669 131.833 85.3269 131.036 85.1859 130.239C85.1539 130.055 84.8729 130.133 84.9049 130.316C85.3969 133.112 85.8879 135.908 86.3799 138.704C86.5199 139.501 86.6599 140.298 86.8009 141.095C86.8129 141.162 86.8569 141.193 86.9079 141.199C86.8579 141.251 86.8399 141.335 86.9019 141.403C89.4959 144.237 91.7479 147.534 92.6399 151.321C93.4949 154.949 93.0259 158.95 90.6249 161.907C89.4609 163.34 87.9149 164.46 86.1359 164.988C85.9569 165.041 86.0329 165.322 86.2129 165.269C89.5139 164.29 91.9779 161.392 92.8839 158.129C93.9769 154.2 92.9929 150.002 91.0429 146.512Z" fill="#7D2131"/>
<path d="M69.4873 178.857C69.5023 183.914 59.9203 221.9 59.9203 221.9C59.9203 221.9 44.5913 222.098 35.3213 216.543L36.9933 212.899L37.1123 212.634L50.6443 183.123L53.3163 128.619L59.8453 126.516L59.9883 126.469L62.1123 125.784C62.1103 125.783 69.4723 173.799 69.4873 178.857Z" fill="#4646E8"/>
<path d="M88.3361 104.405C88.3321 104.483 88.3202 104.562 88.3162 104.64C88.3052 104.733 88.3012 104.811 88.2902 104.904C87.8172 109.311 86.2351 112.102 84.0301 114.185C82.8491 115.308 81.7501 116.136 80.7821 116.874C80.4711 117.112 80.1812 117.336 79.8982 117.559C79.6772 117.73 79.4701 117.908 79.2571 118.094C77.1001 119.926 75.8872 121.938 76.1952 127.694C74.5012 132.713 67.0402 133.799 64.3222 128.337C64.0272 121.366 62.3841 115.424 61.0111 111.61C60.6631 110.614 60.3261 109.767 60.0391 109.088C59.4951 107.787 59.1142 107.076 59.1142 107.076C59.1142 107.076 58.6161 91.746 60.6021 87.561C65.4431 77.464 84.4632 79.801 86.3482 87.539C88.1562 94.929 88.6931 100.336 88.3361 104.405Z" fill="#FFC9AB"/>
<path d="M88.4874 95.7317C85.8274 92.1367 82.5294 89.0157 78.7934 86.5577C76.7534 91.5697 72.0054 95.4127 66.7384 96.6527C66.1434 98.4977 65.3364 100.294 63.8034 101.48C62.2704 102.667 60.3734 103.378 58.4374 103.491C56.2704 99.5397 55.9364 94.6237 57.4054 90.3637C58.8744 86.1037 62.2034 82.5227 66.3444 80.7477C68.9424 79.6337 71.8114 79.2167 74.6354 79.3417C77.0884 79.4507 79.5684 79.9817 81.6664 81.2577C84.0384 82.6997 85.7864 85.0217 86.9144 87.5577C88.0414 90.0937 88.1214 92.9797 88.4874 95.7317Z" fill="#421F09"/>
<path d="M79.6496 103.198C79.9206 103.06 80.2096 102.976 80.5146 102.958C80.7866 102.942 81.0856 102.977 81.3116 103.141C81.5536 103.317 81.6756 103.589 81.6996 103.883C81.7226 104.163 81.6306 104.44 81.5276 104.696C81.4716 104.834 81.3396 104.949 81.1796 104.899C81.0476 104.858 80.9166 104.699 80.9766 104.551C81.0526 104.364 81.1366 104.16 81.1336 103.955C81.1326 103.85 81.1046 103.742 81.0426 103.658C81.0456 103.663 81.0496 103.669 81.0526 103.674C80.9946 103.584 80.8836 103.551 80.7836 103.533C80.7756 103.532 80.7686 103.531 80.7566 103.529C80.7356 103.529 80.7136 103.526 80.6926 103.525C80.6356 103.523 80.5786 103.524 80.5216 103.527C80.4926 103.529 80.4636 103.532 80.4346 103.534C80.4196 103.535 80.4176 103.535 80.4136 103.535C80.4086 103.536 80.4086 103.536 80.3956 103.539C80.2186 103.571 80.0676 103.643 79.8996 103.703C79.7736 103.748 79.6186 103.711 79.5516 103.588C79.4826 103.461 79.5076 103.27 79.6496 103.198Z" fill="#C16B5B"/>
<path d="M85.978 96.3678C84.6 95.3718 82.812 95.0608 81.197 95.6458C80.802 95.7888 80.533 96.2528 80.692 96.6648C80.898 97.1988 81.385 97.2628 81.87 97.1148C82.865 96.8128 83.922 96.9548 84.807 97.5008C84.836 97.5188 84.865 97.5378 84.911 97.5668C85.251 97.8078 85.744 97.8588 86.038 97.5028C86.29 97.1968 86.342 96.6308 85.978 96.3678Z" fill="#421F09"/>
<path d="M76.1662 95.9032C74.5332 95.4302 72.7442 95.7382 71.4212 96.8332C71.0972 97.1012 71.0002 97.6292 71.2882 97.9632C71.5672 98.2872 72.0712 98.3832 72.4182 98.0962C72.8112 97.7712 73.2662 97.5352 73.7552 97.3862C73.7342 97.3962 73.7132 97.4052 73.6922 97.4152C74.3012 97.2442 74.9162 97.2582 75.5312 97.3852C75.9512 97.4712 76.4372 97.4172 76.6052 96.9532C76.7402 96.5782 76.5982 96.0282 76.1662 95.9032Z" fill="#421F09"/>
<path d="M73.1072 101.566C73.0832 102.284 73.6462 102.885 74.3642 102.909C75.0822 102.933 75.6832 102.37 75.7072 101.652C75.7312 100.934 75.1682 100.333 74.4502 100.309C73.7332 100.285 73.1312 100.848 73.1072 101.566Z" fill="black"/>
<path d="M74.4983 101.196C74.4913 101.405 74.6553 101.581 74.8643 101.587C75.0733 101.594 75.2483 101.43 75.2563 101.221C75.2633 101.012 75.0993 100.837 74.8903 100.83C74.6803 100.823 74.5053 100.986 74.4983 101.196Z" fill="white"/>
<path d="M82.5974 101.305C82.5734 102.023 83.1364 102.624 83.8544 102.648C84.5724 102.672 85.1734 102.109 85.1974 101.391C85.2214 100.673 84.6584 100.072 83.9404 100.048C83.2224 100.024 82.6214 100.587 82.5974 101.305Z" fill="black"/>
<path d="M83.9875 100.935C83.9805 101.144 84.1445 101.319 84.3535 101.326C84.5625 101.333 84.7375 101.169 84.7445 100.96C84.7515 100.751 84.5875 100.576 84.3785 100.569C84.1695 100.562 83.9945 100.726 83.9875 100.935Z" fill="white"/>
<path d="M76.6464 106.796C77.0244 106.307 77.8624 106.921 78.9084 107.092C79.9544 107.263 80.9444 106.947 81.1474 107.531C81.4034 108.269 80.2244 109.807 78.5104 109.527C76.7964 109.248 76.1684 107.415 76.6464 106.796Z" fill="#8E4136"/>
<path d="M76.6094 107.941C76.9434 107.953 77.2974 107.983 77.6674 108.044C78.8854 108.243 79.8864 108.663 80.3144 109.102C79.8494 109.434 79.2324 109.646 78.5104 109.528C77.4804 109.359 76.8504 108.63 76.6094 107.941Z" fill="#C16B5B"/>
<path d="M78.8121 107.681C77.8781 107.528 77.1201 107.177 76.9131 106.626C77.3531 106.527 78.0631 106.955 78.9081 107.093C79.7531 107.231 80.5621 107.051 80.9481 107.285C80.5761 107.741 79.7461 107.833 78.8121 107.681Z" fill="#E1EFF0"/>
<path d="M55.0084 107.645C56.7274 109.485 59.3054 109.871 60.7654 108.507C62.2254 107.142 62.0154 104.544 60.2974 102.704C58.5784 100.864 56.0004 100.48 54.5404 101.844C53.0794 103.209 53.2894 105.805 55.0084 107.645Z" fill="#FFC9AB"/>
<path d="M55.6454 102.73C56.3124 102.33 57.2294 102.297 58.0964 102.646C58.5284 102.819 58.8474 103.041 59.0724 103.324C59.3694 103.699 59.4724 104.184 59.3404 104.59C59.2234 104.954 58.9514 105.202 58.7104 105.42C58.5364 105.578 58.3724 105.727 58.2834 105.899C58.1484 106.164 58.2054 106.521 58.4164 106.73C58.6274 106.939 58.9854 106.991 59.2484 106.852C59.4034 106.77 59.5944 106.83 59.6764 106.984C59.7574 107.138 59.6994 107.33 59.5444 107.412C59.3754 107.501 59.1894 107.55 59.0014 107.56C58.6264 107.58 58.2424 107.448 57.9724 107.18C57.5664 106.778 57.4614 106.119 57.7214 105.61C57.8624 105.336 58.0874 105.132 58.2854 104.952C58.4844 104.771 58.6724 104.6 58.7384 104.396C58.8044 104.191 58.7414 103.925 58.5764 103.717C58.5094 103.633 58.4214 103.559 58.3244 103.488C58.0104 103.502 57.6234 103.62 57.4364 103.847C57.2264 104.104 57.1394 104.463 57.2104 104.786C57.2484 104.957 57.1404 105.125 56.9694 105.163C56.9524 105.167 56.9354 105.169 56.9174 105.17C56.7654 105.178 56.6264 105.076 56.5924 104.922C56.4784 104.407 56.6104 103.855 56.9464 103.445C57.0714 103.293 57.2324 103.186 57.4014 103.097C56.8714 102.984 56.3574 103.04 55.9694 103.272C55.4894 103.559 55.1524 104.253 55.4364 104.788C55.5174 104.943 55.4584 105.134 55.3044 105.216C55.1494 105.297 54.9594 105.239 54.8774 105.084C54.4664 104.306 54.8174 103.228 55.6454 102.73Z" fill="#C16B5B"/>
<path d="M67.1822 178.568C67.0832 180.249 57.1842 217.192 56.7642 218.762L56.7322 218.878L56.6132 218.869C50.8222 218.461 40.4482 214.333 36.9922 212.897L37.1112 212.632C40.5372 214.057 50.7452 218.118 56.5132 218.569C57.1392 216.227 66.7942 180.158 66.8902 178.55C66.9862 176.913 60.0382 127.88 59.8432 126.514C59.8432 126.5 59.8402 126.494 59.8402 126.488L59.9862 126.468L60.1292 126.448C60.4242 128.504 67.2812 176.887 67.1822 178.568Z" fill="#7D2131"/>
<path d="M53.3152 128.618C48.5242 130.132 33.6542 160.475 31.3752 165.876C29.7592 169.705 29.5142 173.749 31.4582 177.381C32.5552 179.43 51.0372 211.619 51.0372 211.619L58.5303 207.553L44.6922 172.807L52.7093 157.402L53.3152 128.618Z" fill="#FFC9AB"/>
<path d="M58.0072 207.098C58.7742 208.396 67.0652 210.199 66.8062 212.009C66.6352 213.197 63.1492 213.641 61.5652 212.594C62.6372 214.731 69.2622 221.759 67.6242 222.931C66.4122 223.798 62.0292 217.955 62.0292 217.955C62.0292 217.955 65.8672 225.421 64.6132 226.126C63.3912 226.813 59.3462 218.983 59.3462 218.983C59.3462 218.983 62.2382 225.585 60.7842 226.19C59.6682 226.655 56.8392 219.367 56.8392 219.367C56.8392 219.367 58.1132 225.469 57.2512 225.651C56.3892 225.833 54.9732 222.175 54.3492 219.202C50.7532 215.405 50.9632 210.739 50.9632 210.739L58.0072 207.098Z" fill="#FFC9AB"/>
<path d="M53.3151 128.618C46.0811 131.056 30.0811 164.998 30.0811 164.998C30.0811 164.998 36.8831 172.287 47.1471 172.659L53.9161 156.147L53.3151 128.618Z" fill="#4646E8"/>
<path d="M57.8696 152.292C56.9506 152.958 56.0316 153.624 55.1126 154.289C55.2296 154.036 55.3456 153.784 55.4626 153.531C55.7776 152.848 56.0926 152.165 56.4076 151.481C56.4856 151.312 56.2346 151.164 56.1556 151.334C55.0376 153.758 53.9206 156.182 52.8026 158.607C52.4876 159.29 52.1726 159.973 51.8576 160.657C51.7796 160.826 52.0306 160.974 52.1096 160.804C53.0276 158.812 53.9466 156.82 54.8646 154.827C55.9156 154.066 56.9656 153.305 58.0166 152.543C58.1666 152.435 58.0216 152.182 57.8696 152.292Z" fill="#7D2131"/>
<path d="M101.119 216.814C97.8942 217.653 93.9792 217.799 93.7692 217.804L93.6412 217.81L93.6212 217.685L85.9362 171.123L78.3242 125.901L78.6092 125.854L78.6242 125.933L86.2222 171.074L93.8872 217.511C94.5982 217.479 98.1342 217.284 101.045 216.529L101.119 216.814Z" fill="#7D2131"/>
</svg>
